<svg xmlns="http://www.w3.org/2000/svg" viewBox="0 0 32 32" fill="none">
  <rect width="32" height="32" rx="8" fill="#1a8a94"/>
  <path
    d="M16 7c-3.5 0-6 2.8-6 6.5 0 2.2 1 4.2 2.6 5.5-.8 1.2-1.3 2.6-1.3 4 0 .6.5 1 1 1h7.4c.6 0 1-.4 1-1 0-1.4-.5-2.8-1.3-4 1.6-1.3 2.6-3.3 2.6-5.5C22 9.8 19.5 7 16 7Z"
    fill="white"
    opacity="0.95"
  />
  <path
    d="M12 22.5c0 .8.7 1.5 1.5 1.5h5c.8 0 1.5-.7 1.5-1.5"
    stroke="white"
    stroke-width="1.5"
    stroke-linecap="round"
    opacity="0.7"
  />
</svg>
